<svg version="1.1" id="Layer_1" xmlns="http://www.w3.org/2000/svg" xmlns:xlink="http://www.w3.org/1999/xlink" x="0px" y="0px"
	 width="100%" viewBox="0 0 478 410" enable-background="new 0 0 478 410" xml:space="preserve">
<path fill="#FEFEFE" opacity="1.000000" stroke="none" 
	d="
M236.000000,411.000000 
	C157.355331,411.000000 79.210648,411.000000 1.032986,411.000000 
	C1.032986,274.393768 1.032986,137.787552 1.032986,1.090660 
	C160.228027,1.090660 319.456116,1.090660 478.842102,1.090660 
	C478.842102,137.666519 478.842102,274.333252 478.842102,411.000000 
	C398.120850,411.000000 317.310425,411.000000 236.000000,411.000000 
M254.023819,292.849579 
	C253.868362,293.131622 253.712921,293.413635 253.557480,293.695679 
	C253.691071,293.756226 253.819489,293.849213 253.959167,293.871490 
	C254.444794,293.949036 255.085449,293.824707 255.398972,294.091858 
	C258.418121,296.664429 258.553131,296.672455 260.952972,293.871765 
	C263.083069,293.871765 265.213196,293.871765 268.836334,293.871765 
	C267.212006,296.675385 266.138702,298.527924 265.056915,300.395142 
	C268.226074,302.842743 269.489441,301.598877 270.493835,294.229126 
	C272.518188,293.998871 274.546478,293.768188 276.574768,293.537506 
	C276.523254,293.263184 276.471741,292.988861 276.420227,292.714539 
	C274.214111,291.829529 272.007965,290.944519 270.066132,289.343719 
	C271.661652,288.670135 273.416565,288.206116 274.751709,287.190338 
	C275.132935,286.900330 274.296631,285.009949 273.971436,283.297424 
	C273.454376,282.846161 272.937286,282.394928 272.235809,281.213409 
	C272.235809,279.637085 272.235809,278.060791 272.235809,276.559204 
	C265.785522,276.559204 259.895905,276.559204 253.922241,276.559204 
	C253.922241,279.154205 254.157516,281.483093 253.870667,283.745819 
	C253.357635,287.792755 255.203705,289.004333 258.945526,289.020691 
	C261.757050,289.032959 264.565765,289.681000 266.929291,290.827240 
	C264.628815,291.241699 262.328308,291.656158 258.902374,291.890686 
	C257.854523,292.270355 256.806641,292.650055 255.681381,292.541901 
	C254.084869,292.408417 252.488373,292.274963 250.891861,292.141479 
	C250.917297,292.024414 250.942719,291.907349 250.968140,291.790283 
	C252.258926,292.100128 253.549713,292.409973 254.023819,292.849579 
M336.848358,225.910141 
	C340.661316,234.276245 344.293610,242.732712 348.403442,250.950333 
	C349.553131,253.249146 352.110809,254.843796 354.394379,257.006714 
	C354.394379,257.006714 354.831238,257.093506 355.305939,257.716461 
	C364.882538,261.724304 372.977814,257.743256 376.733032,246.917572 
	C386.444946,227.267151 396.189636,207.632843 405.855499,187.959808 
	C411.047455,177.392624 416.368744,166.875641 421.116821,156.108994 
	C423.727295,150.189514 421.507751,144.070160 416.494812,140.090683 
	C412.285065,136.748795 406.165802,136.242844 401.115448,139.590927 
	C398.622589,141.243561 396.334076,143.801025 394.978302,146.469864 
	C388.823761,158.584991 383.073242,170.904663 377.097961,183.111832 
	C373.828064,189.791946 370.400208,196.394745 366.272675,203.003433 
	C365.947021,202.954208 365.438995,203.021378 365.322357,202.838699 
	C362.420593,198.293930 359.595612,193.774445 353.914886,192.027786 
	C353.105621,191.778976 352.453339,189.478989 352.522522,188.170319 
	C352.898407,181.060669 352.984192,181.065201 345.784485,180.789673 
	C345.784485,180.789673 345.777893,180.481522 345.905579,179.597687 
	C346.670197,173.330566 339.264526,168.566940 342.601990,161.801773 
	C342.628876,161.747314 342.127289,161.432144 341.872467,161.238708 
	C341.309540,160.678787 340.746582,160.118866 340.183655,159.558945 
	C339.407318,161.152878 338.630951,162.746811 337.358826,163.801605 
	C334.967224,158.699814 332.447845,153.653320 330.210449,148.484772 
	C325.450226,137.488419 322.193878,135.522751 310.335327,136.887253 
	C305.381561,137.457245 301.799133,141.450546 301.549377,146.575150 
	C300.974152,158.378189 307.528809,167.480545 313.000000,176.999985 
	C313.000000,176.999985 313.009003,176.989349 313.058014,177.777359 
	C313.692047,179.648041 314.138153,181.609863 314.993500,183.373169 
	C318.217041,190.018494 321.479919,196.648346 324.905426,203.191116 
	C328.772949,210.578079 332.831543,217.864990 336.937378,225.083054 
	C336.937378,225.083054 336.776703,225.144577 336.848358,225.910141 
M291.027100,298.146149 
	C290.692810,293.117126 290.358490,288.088104 290.010742,282.857025 
	C293.266998,282.700653 295.779694,282.579987 298.292419,282.459320 
	C293.481781,281.465210 288.439606,281.501282 285.003296,275.534729 
	C283.213531,279.747437 281.423767,283.960144 280.506348,286.119507 
	C280.506348,292.368408 280.506348,296.543365 280.506348,301.242920 
	C284.674927,297.826813 281.480499,291.123657 288.476105,289.027832 
	C287.995300,292.981598 287.596863,296.258057 287.136932,300.040344 
	C287.382416,300.091309 288.722809,300.369537 290.581757,301.056915 
	C291.795197,300.430389 293.736908,300.071594 294.084259,299.126709 
	C295.091949,296.385651 295.400543,293.394775 296.107208,290.532471 
	C296.399811,289.347382 297.007141,288.239990 297.471344,287.097260 
	C297.993591,287.228699 298.515869,287.360107 299.038116,287.491547 
	C299.038116,290.746094 298.761902,294.036591 299.178131,297.237000 
	C299.337921,298.465729 301.384674,300.574005 302.034271,300.389496 
	C303.583435,299.949493 304.812714,298.383148 306.171173,297.271698 
	C305.756470,296.813995 305.341766,296.356262 304.927063,295.898560 
	C303.997101,296.539215 303.067108,297.179871 301.476318,298.275787 
	C301.476318,293.566711 301.476318,289.525330 301.476318,285.500793 
	C298.696686,285.500793 296.437195,285.500793 294.528290,285.500793 
	C293.648926,289.982483 292.831909,294.146301 291.027100,298.146149 
M266.816498,241.278641 
	C267.751312,241.201996 268.686096,241.125366 270.042572,241.646103 
	C271.132782,243.879593 272.234222,246.107697 273.311096,248.347595 
	C276.504456,254.989746 280.646393,259.178864 289.168457,258.287415 
	C298.409698,257.320740 304.587036,249.167786 301.182800,240.433777 
	C299.678467,236.574280 297.976685,232.778351 296.143738,229.062469 
	C283.856903,204.153671 271.525909,179.266632 259.168121,154.392944 
	C257.170898,150.373001 255.295456,146.232040 252.780655,142.544693 
	C249.463776,137.681229 244.292358,136.034058 238.693527,137.145828 
	C233.164566,138.243729 229.032074,141.401749 227.354965,147.892960 
	C212.204971,178.947189 197.054977,210.001419 181.280792,240.832428 
	C180.795151,239.881363 180.309494,238.930313 180.265335,237.239258 
	C180.511414,235.315613 180.973663,233.391678 180.971008,231.468384 
	C180.934006,204.646133 180.833405,177.823944 180.843369,150.248962 
	C179.203018,141.937057 173.269806,136.604980 166.376633,137.247986 
	C157.984207,138.030807 153.033737,143.754196 152.999969,152.908234 
	C152.934830,170.564102 152.940979,188.220215 152.295563,205.674210 
	C145.670563,197.812988 138.997574,189.991562 132.434036,182.079361 
	C125.877861,174.176010 119.641212,165.997620 112.873734,158.282562 
	C106.888000,151.458710 100.420547,145.050873 94.016235,138.608017 
	C93.093346,137.679581 91.363831,137.310410 89.953827,137.147293 
	C79.217766,135.905411 72.034912,146.213806 74.885796,158.065887 
	C74.871727,187.187851 74.839500,216.309860 74.884438,245.431732 
	C74.887436,247.373734 75.102219,249.476379 75.859337,251.227173 
	C78.534370,257.413086 85.042595,260.357025 92.034462,258.840851 
	C97.594139,257.635254 102.139626,251.863342 102.165314,245.651077 
	C102.241028,227.346634 102.227150,209.041794 102.805450,191.110931 
	C104.988686,193.604691 107.221046,196.057358 109.347290,198.598801 
	C124.682198,216.928329 140.237564,235.081619 155.193100,253.716125 
	C160.925827,260.859070 174.622147,261.339600 178.886292,252.771927 
	C179.586823,251.364395 180.867157,250.245438 181.922424,249.738525 
	C183.320663,254.081406 185.940674,258.018311 190.543991,258.127716 
	C196.646225,258.272675 203.740570,259.620483 207.210541,251.827423 
	C208.753464,248.362259 210.861191,245.148575 213.489105,242.012909 
	C217.518143,245.244553 221.672867,246.240936 226.502945,243.460800 
	C227.685501,242.780121 229.660492,243.463333 231.270187,243.539764 
	C240.811951,243.992844 250.351883,244.668945 259.896240,244.737289 
	C261.961731,244.752075 264.042786,242.589050 266.816498,241.278641 
M203.614426,298.280884 
	C204.735672,298.563293 205.856934,298.845703 207.544617,299.270752 
	C207.544617,293.483795 207.632660,288.505310 207.466995,283.535248 
	C207.435593,282.592346 206.398468,281.683014 205.825409,280.758179 
	C205.326691,281.619568 204.448105,282.459412 204.397842,283.346191 
	C204.221176,286.463867 204.329239,289.597717 204.329239,293.151520 
	C198.718536,288.332916 198.197052,280.269196 190.346420,277.077454 
	C190.346420,284.551941 190.274551,290.520599 190.421982,296.483826 
	C190.444748,297.404633 191.473953,298.300568 192.037735,299.208008 
	C192.559875,299.035461 193.082031,298.862946 193.604172,298.690399 
	C193.604172,294.246216 193.604172,289.802063 193.604172,285.357880 
	C194.071854,285.230530 194.539520,285.103180 195.007202,284.975830 
	C197.697968,289.231720 200.388733,293.487640 203.614426,298.280884 
M225.180008,298.425934 
	C227.892776,299.850189 228.564224,298.912048 227.695816,296.236816 
	C226.113174,291.361237 224.743576,286.397186 222.804855,281.666870 
	C222.117615,279.990112 220.030624,278.886993 218.179993,277.142365 
	C215.156204,285.088715 212.592087,291.827057 209.640961,299.582458 
	C211.414993,298.813904 213.025391,298.539490 213.111435,298.014984 
	C214.250687,291.070496 219.250870,293.268188 223.430573,293.230560 
	C224.002686,294.850769 224.491287,296.234497 225.180008,298.425934 
M242.784393,292.456177 
	C244.500702,287.746735 246.217026,283.037323 247.933334,278.327881 
	C247.420624,278.077667 246.907898,277.827484 246.395172,277.577271 
	C241.382492,281.699585 242.482544,289.239166 238.773361,294.013184 
	C234.925049,289.158783 236.561707,281.502655 230.198715,278.056458 
	C231.935455,284.576355 234.151154,290.876404 236.543320,297.108704 
	C236.861420,297.937439 238.124512,298.984283 238.862152,298.920166 
	C239.732651,298.844452 240.736160,297.809113 241.266525,296.937103 
	C241.939102,295.831299 242.193787,294.471313 242.784393,292.456177 
z"/>
<path fill="#75B0BE" opacity="1.000000" stroke="none" 
	d="
M181.879517,248.993103 
	C180.867157,250.245438 179.586823,251.364395 178.886292,252.771927 
	C174.622147,261.339600 160.925827,260.859070 155.193100,253.716125 
	C140.237564,235.081619 124.682198,216.928329 109.347290,198.598801 
	C107.221046,196.057358 104.988686,193.604691 102.384964,190.628754 
	C92.955902,179.152344 83.947334,168.158112 74.938759,157.163895 
	C72.034912,146.213806 79.217766,135.905411 89.953827,137.147293 
	C91.363831,137.310410 93.093346,137.679581 94.016235,138.608017 
	C100.420547,145.050873 106.888000,151.458710 112.873734,158.282562 
	C119.641212,165.997620 125.877861,174.176010 132.434036,182.079361 
	C138.997574,189.991562 145.670563,197.812988 152.682220,206.122833 
	C160.999496,215.741409 168.930130,224.911392 176.928009,234.411011 
	C177.938126,235.820190 178.880997,236.899719 179.823853,237.979248 
	C180.309494,238.930313 180.795151,239.881363 181.633301,241.378632 
	C181.950378,244.280930 181.914948,246.637009 181.879517,248.993103 
z"/>
<path fill="#73B0BD" opacity="1.000000" stroke="none" 
	d="
M227.948074,147.436996 
	C229.032074,141.401749 233.164566,138.243729 238.693527,137.145828 
	C244.292358,136.034058 249.463776,137.681229 252.780655,142.544693 
	C255.295456,146.232040 257.170898,150.373001 259.168121,154.392944 
	C271.525909,179.266632 283.856903,204.153671 296.143738,229.062469 
	C297.976685,232.778351 299.678467,236.574280 301.182800,240.433777 
	C304.587036,249.167786 298.409698,257.320740 289.168457,258.287415 
	C280.646393,259.178864 276.504456,254.989746 273.311096,248.347595 
	C272.234222,246.107697 271.132782,243.879593 269.857422,240.990723 
	C265.226349,231.242950 260.780426,222.150558 256.215210,212.701904 
	C253.983948,208.071472 251.933151,203.765732 249.744843,199.531036 
	C246.907364,194.040146 243.960358,188.605850 241.023788,182.756317 
	C240.176468,180.227692 239.456421,178.050247 238.539688,175.959030 
	C234.460571,166.653702 227.674088,158.359222 227.948074,147.436996 
z"/>
<path fill="#E68938" opacity="1.000000" stroke="none" 
	d="
M354.831238,257.093506 
	C354.831238,257.093506 354.394379,257.006714 354.162750,256.545471 
	C349.909241,248.311386 345.962799,240.498047 341.824341,232.787811 
	C340.386353,230.108795 338.472931,227.684967 336.776703,225.144577 
	C336.776703,225.144577 336.937378,225.083054 336.926208,224.748550 
	C336.689606,223.454926 336.632782,222.414139 336.213623,221.548859 
	C329.420074,207.524063 322.606384,193.508743 315.698914,179.539932 
	C315.184906,178.500519 313.923157,177.830887 313.009003,176.989349 
	C313.009003,176.989349 313.000000,176.999985 313.015930,176.602661 
	C310.808929,171.093460 308.613312,165.969437 306.355499,160.873001 
	C303.992767,155.539688 301.602661,150.286499 304.359558,144.280823 
	C307.536926,137.359222 317.393158,135.527100 322.554596,141.023071 
	C329.127106,148.021561 332.424011,156.827805 336.148804,165.420731 
	C336.729095,166.759460 338.245819,167.692261 339.566406,169.058563 
	C341.794861,173.030060 343.786377,176.755783 345.777893,180.481522 
	C345.777893,180.481522 345.784485,180.789673 345.931152,181.252899 
	C350.446136,190.714798 354.814514,199.713470 359.132935,209.113403 
	C359.765442,210.639450 360.447845,211.764236 361.060730,212.931610 
	C360.991211,212.974182 361.122498,212.875092 361.077484,213.265182 
	C364.979645,222.335556 368.873840,231.040451 372.891907,239.687790 
	C375.747223,245.832703 373.793823,251.083923 368.930359,254.629623 
	C366.131348,256.670288 361.866089,256.767090 358.217621,257.533051 
	C357.165955,257.753845 355.964172,257.259796 354.831238,257.093506 
z"/>
<path fill="#75B0BE" opacity="1.000000" stroke="none" 
	d="
M367.043579,203.032394 
	C370.400208,196.394745 373.828064,189.791946 377.097961,183.111832 
	C383.073242,170.904663 388.823761,158.584991 394.978302,146.469864 
	C396.334076,143.801025 398.622589,141.243561 401.115448,139.590927 
	C406.165802,136.242844 412.285065,136.748795 416.494812,140.090683 
	C421.507751,144.070160 423.727295,150.189514 421.116821,156.108994 
	C416.368744,166.875641 411.047455,177.392624 405.855499,187.959808 
	C396.189636,207.632843 386.444946,227.267151 376.407654,246.719864 
	C374.996033,242.568741 374.303375,238.451385 372.739624,234.696854 
	C369.707214,227.416245 366.184998,220.339661 362.950928,212.815811 
	C364.371948,209.312851 365.707764,206.172623 367.043579,203.032394 
z"/>
<path fill="#7E6191" opacity="1.000000" stroke="none" 
	d="
M227.651520,147.664978 
	C227.674088,158.359222 234.460571,166.653702 238.539688,175.959030 
	C239.456421,178.050247 240.176468,180.227692 240.938873,183.089508 
	C236.073975,193.544922 231.257278,203.276276 226.213562,213.239868 
	C223.169113,218.991165 220.233780,224.454224 217.577347,230.049698 
	C215.915970,233.549179 214.674789,237.248138 213.090912,241.086761 
	C212.862015,241.484192 212.787277,241.652466 212.712555,241.820740 
	C210.861191,245.148575 208.753464,248.362259 207.210541,251.827423 
	C203.740570,259.620483 196.646225,258.272675 190.543991,258.127716 
	C185.940674,258.018311 183.320663,254.081406 181.900970,249.365814 
	C181.914948,246.637009 181.950378,244.280930 181.945404,241.490234 
	C197.054977,210.001419 212.204971,178.947189 227.651520,147.664978 
z"/>
<path fill="#D3325C" opacity="1.000000" stroke="none" 
	d="
M74.912277,157.614899 
	C83.947334,168.158112 92.955902,179.152344 102.106407,190.441833 
	C102.227150,209.041794 102.241028,227.346634 102.165314,245.651077 
	C102.139626,251.863342 97.594139,257.635254 92.034462,258.840851 
	C85.042595,260.357025 78.534370,257.413086 75.859337,251.227173 
	C75.102219,249.476379 74.887436,247.373734 74.884438,245.431732 
	C74.839500,216.309860 74.871727,187.187851 74.912277,157.614899 
z"/>
<path fill="#7C5F92" opacity="1.000000" stroke="none" 
	d="
M176.860764,234.081360 
	C168.930130,224.911392 160.999496,215.741409 152.993225,206.223846 
	C152.940979,188.220215 152.934830,170.564102 152.999969,152.908234 
	C153.033737,143.754196 157.984207,138.030807 166.376633,137.247986 
	C173.269806,136.604980 179.203018,141.937057 180.421387,150.741882 
	C179.666687,152.936951 179.048706,154.638367 179.044205,156.341385 
	C178.981049,180.230103 179.053207,204.119370 178.908859,228.007385 
	C178.896591,230.036102 177.574402,232.056885 176.860764,234.081360 
z"/>
<path fill="#E58A3B" opacity="1.000000" stroke="none" 
	d="
M213.245087,240.857605 
	C214.674789,237.248138 215.915970,233.549179 217.577347,230.049698 
	C220.233780,224.454224 223.169113,218.991165 226.709641,213.366531 
	C237.066635,213.193359 246.700577,213.125763 256.334503,213.058167 
	C260.780426,222.150558 265.226349,231.242950 269.646606,240.692047 
	C268.686096,241.125366 267.751312,241.201996 266.003540,241.227203 
	C247.875427,241.069717 230.560257,240.963654 213.245087,240.857605 
z"/>
<path fill="#4B494B" opacity="1.000000" stroke="none" 
	d="
M203.346970,298.012207 
	C200.388733,293.487640 197.697968,289.231720 195.007202,284.975830 
	C194.539520,285.103180 194.071854,285.230530 193.604172,285.357880 
	C193.604172,289.802063 193.604172,294.246216 193.604172,298.690399 
	C193.082031,298.862946 192.559875,299.035461 192.037735,299.208008 
	C191.473953,298.300568 190.444748,297.404633 190.421982,296.483826 
	C190.274551,290.520599 190.346420,284.551941 190.346420,277.077454 
	C198.197052,280.269196 198.718536,288.332916 204.329239,293.151520 
	C204.329239,289.597717 204.221176,286.463867 204.397842,283.346191 
	C204.448105,282.459412 205.326691,281.619568 205.825409,280.758179 
	C206.398468,281.683014 207.435593,282.592346 207.466995,283.535248 
	C207.632660,288.505310 207.544617,293.483795 207.544617,299.270752 
	C205.856934,298.845703 204.735672,298.563293 203.346970,298.012207 
z"/>
<path fill="#D69960" opacity="1.000000" stroke="none" 
	d="
M339.329529,168.812775 
	C338.245819,167.692261 336.729095,166.759460 336.148804,165.420731 
	C332.424011,156.827805 329.127106,148.021561 322.554596,141.023071 
	C317.393158,135.527100 307.536926,137.359222 304.359558,144.280823 
	C301.602661,150.286499 303.992767,155.539688 306.355499,160.873001 
	C308.613312,165.969437 310.808929,171.093460 313.021393,176.599274 
	C307.528809,167.480545 300.974152,158.378189 301.549377,146.575150 
	C301.799133,141.450546 305.381561,137.457245 310.335327,136.887253 
	C322.193878,135.522751 325.450226,137.488419 330.210449,148.484772 
	C332.447845,153.653320 334.967224,158.699814 337.661804,164.399979 
	C338.419708,166.269821 338.874634,167.541306 339.329529,168.812775 
z"/>
<path fill="#F9F2E7" opacity="1.000000" stroke="none" 
	d="
M366.658112,203.017914 
	C365.707764,206.172623 364.371948,209.312851 362.657715,212.782593 
	C361.893677,213.033096 361.508087,212.954086 361.122498,212.875092 
	C361.122498,212.875092 360.991211,212.974182 361.043335,212.591522 
	C360.457916,211.043274 359.820404,209.877701 359.182861,208.712128 
	C354.814514,199.713470 350.446136,190.714798 346.045410,181.356323 
	C352.984192,181.065201 352.898407,181.060669 352.522522,188.170319 
	C352.453339,189.478989 353.105621,191.778976 353.914886,192.027786 
	C359.595612,193.774445 362.420593,198.293930 365.322357,202.838699 
	C365.438995,203.021378 365.947021,202.954208 366.658112,203.017914 
z"/>
<path fill="#565556" opacity="1.000000" stroke="none" 
	d="
M290.063232,300.647766 
	C288.722809,300.369537 287.382416,300.091309 287.136932,300.040344 
	C287.596863,296.258057 287.995300,292.981598 288.476105,289.027832 
	C281.480499,291.123657 284.674927,297.826813 280.506348,301.242920 
	C280.506348,296.543365 280.506348,292.368408 280.506348,286.119507 
	C281.423767,283.960144 283.213531,279.747437 285.003296,275.534729 
	C288.439606,281.501282 293.481781,281.465210 298.292419,282.459320 
	C295.779694,282.579987 293.266998,282.700653 290.010742,282.857025 
	C290.358490,288.088104 290.692810,293.117126 291.384155,298.442200 
	C291.181885,299.374756 290.622559,300.011261 290.063232,300.647766 
M287.810089,287.300262 
	C287.876221,285.278900 288.100067,283.235931 287.829102,281.260803 
	C287.790863,280.981934 285.338531,281.034241 283.467590,280.892731 
	C284.560150,283.856964 281.665924,287.882538 287.810089,287.300262 
z"/>
<path fill="#786386" opacity="1.000000" stroke="none" 
	d="
M176.928009,234.411011 
	C177.574402,232.056885 178.896591,230.036102 178.908859,228.007385 
	C179.053207,204.119370 178.981049,180.230103 179.044205,156.341385 
	C179.048706,154.638367 179.666687,152.936951 180.373871,151.118271 
	C180.833405,177.823944 180.934006,204.646133 180.971008,231.468384 
	C180.973663,233.391678 180.511414,235.315613 180.044586,237.609253 
	C178.880997,236.899719 177.938126,235.820190 176.928009,234.411011 
z"/>
<path fill="#585858" opacity="1.000000" stroke="none" 
	d="
M267.375732,290.045990 
	C264.565765,289.681000 261.757050,289.032959 258.945526,289.020691 
	C255.203705,289.004333 253.357635,287.792755 253.870667,283.745819 
	C254.157516,281.483093 253.922241,279.154205 253.922241,276.559204 
	C259.895905,276.559204 265.785522,276.559204 272.235809,276.559204 
	C272.235809,278.060791 272.235809,279.637085 272.188904,281.995728 
	C270.497833,283.134613 268.863922,283.727600 267.207428,283.799225 
	C263.586029,283.955841 259.953186,283.847717 255.119293,283.847717 
	C260.305939,288.161407 270.711426,287.543243 274.018616,283.853424 
	C274.296631,285.009949 275.132935,286.900330 274.751709,287.190338 
	C273.416565,288.206116 271.661652,288.670135 269.630676,289.711334 
	C268.588715,290.067963 267.982239,290.056976 267.375732,290.045990 
M262.540527,278.595520 
	C260.431732,278.779327 258.322906,278.963165 255.387268,279.219055 
	C259.516785,282.853638 267.771942,282.501587 270.135162,278.595032 
	C267.558258,278.595032 265.513245,278.595032 262.540527,278.595520 
z"/>
<path fill="#F5DFCC" opacity="1.000000" stroke="none" 
	d="
M213.090912,241.086761 
	C230.560257,240.963654 247.875427,241.069717 265.653625,241.302460 
	C264.042786,242.589050 261.961731,244.752075 259.896240,244.737289 
	C250.351883,244.668945 240.811951,243.992844 231.270187,243.539764 
	C229.660492,243.463333 227.685501,242.780121 226.502945,243.460800 
	C221.672867,246.240936 217.518143,245.244553 213.100830,241.916824 
	C212.787277,241.652466 212.862015,241.484192 213.090912,241.086761 
z"/>
<path fill="#464445" opacity="1.000000" stroke="none" 
	d="
M225.079941,298.022064 
	C224.491287,296.234497 224.002686,294.850769 223.430573,293.230560 
	C219.250870,293.268188 214.250687,291.070496 213.111435,298.014984 
	C213.025391,298.539490 211.414993,298.813904 209.640961,299.582458 
	C212.592087,291.827057 215.156204,285.088715 218.179993,277.142365 
	C220.030624,278.886993 222.117615,279.990112 222.804855,281.666870 
	C224.743576,286.397186 226.113174,291.361237 227.695816,296.236816 
	C228.564224,298.912048 227.892776,299.850189 225.079941,298.022064 
M218.651184,290.533813 
	C219.733093,290.388367 220.815002,290.242920 222.266449,290.047791 
	C221.274841,287.227295 220.417297,284.788116 219.260483,281.497711 
	C218.145523,284.388123 217.248413,286.311005 216.721786,288.330444 
	C216.568649,288.917725 217.474548,289.781128 218.651184,290.533813 
z"/>
<path fill="#4B494B" opacity="1.000000" stroke="none" 
	d="
M242.706528,292.838562 
	C242.193787,294.471313 241.939102,295.831299 241.266525,296.937103 
	C240.736160,297.809113 239.732651,298.844452 238.862152,298.920166 
	C238.124512,298.984283 236.861420,297.937439 236.543320,297.108704 
	C234.151154,290.876404 231.935455,284.576355 230.198715,278.056458 
	C236.561707,281.502655 234.925049,289.158783 238.773361,294.013184 
	C242.482544,289.239166 241.382492,281.699585 246.395172,277.577271 
	C246.907898,277.827484 247.420624,278.077667 247.933334,278.327881 
	C246.217026,283.037323 244.500702,287.746735 242.706528,292.838562 
z"/>
<path fill="#D69960" opacity="1.000000" stroke="none" 
	d="
M313.033508,177.383362 
	C313.923157,177.830887 315.184906,178.500519 315.698914,179.539932 
	C322.606384,193.508743 329.420074,207.524063 336.213623,221.548859 
	C336.632782,222.414139 336.689606,223.454926 336.861023,224.804718 
	C332.831543,217.864990 328.772949,210.578079 324.905426,203.191116 
	C321.479919,196.648346 318.217041,190.018494 314.993500,183.373169 
	C314.138153,181.609863 313.692047,179.648041 313.033508,177.383362 
z"/>
<path fill="#D69960" opacity="1.000000" stroke="none" 
	d="
M361.077484,213.265182 
	C361.508087,212.954086 361.893677,213.033096 362.572510,213.145325 
	C366.184998,220.339661 369.707214,227.416245 372.739624,234.696854 
	C374.303375,238.451385 374.996033,242.568741 376.161774,246.971588 
	C372.977814,257.743256 364.882538,261.724304 355.068604,257.404968 
	C355.964172,257.259796 357.165955,257.753845 358.217621,257.533051 
	C361.866089,256.767090 366.131348,256.670288 368.930359,254.629623 
	C373.793823,251.083923 375.747223,245.832703 372.891907,239.687790 
	C368.873840,231.040451 364.979645,222.335556 361.077484,213.265182 
z"/>
<path fill="#525051" opacity="1.000000" stroke="none" 
	d="
M290.322510,300.852356 
	C290.622559,300.011261 291.181885,299.374756 291.878052,298.524170 
	C292.831909,294.146301 293.648926,289.982483 294.528290,285.500793 
	C296.437195,285.500793 298.696686,285.500793 301.476318,285.500793 
	C301.476318,289.525330 301.476318,293.566711 301.476318,298.275787 
	C303.067108,297.179871 303.997101,296.539215 304.927063,295.898560 
	C305.341766,296.356262 305.756470,296.813995 306.171173,297.271698 
	C304.812714,298.383148 303.583435,299.949493 302.034271,300.389496 
	C301.384674,300.574005 299.337921,298.465729 299.178131,297.237000 
	C298.761902,294.036591 299.038116,290.746094 299.038116,287.491547 
	C298.515869,287.360107 297.993591,287.228699 297.471344,287.097260 
	C297.007141,288.239990 296.399811,289.347382 296.107208,290.532471 
	C295.400543,293.394775 295.091949,296.385651 294.084259,299.126709 
	C293.736908,300.071594 291.795197,300.430389 290.322510,300.852356 
z"/>
<path fill="#414141" opacity="1.000000" stroke="none" 
	d="
M267.152527,290.436615 
	C267.982239,290.056976 268.588715,290.067963 269.498535,290.069214 
	C272.007965,290.944519 274.214111,291.829529 276.420227,292.714539 
	C276.471741,292.988861 276.523254,293.263184 276.574768,293.537506 
	C274.546478,293.768188 272.518188,293.998871 270.493835,294.229126 
	C269.489441,301.598877 268.226074,302.842743 265.056915,300.395142 
	C266.138702,298.527924 267.212006,296.675385 268.836334,293.871765 
	C265.213196,293.871765 263.083069,293.871765 260.504272,293.529694 
	C260.046326,292.815277 260.037079,292.442963 260.027832,292.070618 
	C262.328308,291.656158 264.628815,291.241699 267.152527,290.436615 
z"/>
<path fill="#D69960" opacity="1.000000" stroke="none" 
	d="
M336.812531,225.527359 
	C338.472931,227.684967 340.386353,230.108795 341.824341,232.787811 
	C345.962799,240.498047 349.909241,248.311386 353.976868,256.422852 
	C352.110809,254.843796 349.553131,253.249146 348.403442,250.950333 
	C344.293610,242.732712 340.661316,234.276245 336.812531,225.527359 
z"/>
<path fill="#F9F2E7" opacity="1.000000" stroke="none" 
	d="
M339.566406,169.058563 
	C338.874634,167.541306 338.419708,166.269821 337.909698,164.669556 
	C338.630951,162.746811 339.407318,161.152878 340.183655,159.558945 
	C340.746582,160.118866 341.309540,160.678787 341.872467,161.238708 
	C342.127289,161.432144 342.628876,161.747314 342.601990,161.801773 
	C339.264526,168.566940 346.670197,173.330566 345.841736,180.039612 
	C343.786377,176.755783 341.794861,173.030060 339.566406,169.058563 
z"/>
<path fill="#E8E8E8" opacity="1.000000" stroke="none" 
	d="
M273.995026,283.575439 
	C270.711426,287.543243 260.305939,288.161407 255.119293,283.847717 
	C259.953186,283.847717 263.586029,283.955841 267.207428,283.799225 
	C268.863922,283.727600 270.497833,283.134613 272.281128,282.360870 
	C272.937286,282.394928 273.454376,282.846161 273.995026,283.575439 
z"/>
<path fill="#585858" opacity="1.000000" stroke="none" 
	d="
M259.465088,291.980652 
	C260.037079,292.442963 260.046326,292.815277 260.044250,293.466736 
	C258.553131,296.672455 258.418121,296.664429 255.398972,294.091858 
	C255.085449,293.824707 254.444794,293.949036 253.959167,293.871490 
	C253.819489,293.849213 253.691071,293.756226 253.557480,293.695679 
	C253.712921,293.413635 253.868362,293.131622 254.405502,292.774994 
	C255.111053,292.810181 255.434921,292.919952 255.758789,293.029724 
	C256.806641,292.650055 257.854523,292.270355 259.465088,291.980652 
z"/>
<path fill="#414141" opacity="1.000000" stroke="none" 
	d="
M255.720093,292.785828 
	C255.434921,292.919952 255.111053,292.810181 254.813843,292.710144 
	C253.549713,292.409973 252.258926,292.100128 250.968140,291.790283 
	C250.942719,291.907349 250.917297,292.024414 250.891861,292.141479 
	C252.488373,292.274963 254.084869,292.408417 255.720093,292.785828 
z"/>
<path fill="#F9FBFA" opacity="1.000000" stroke="none" 
	d="
M256.215210,212.701889 
	C246.700577,213.125763 237.066635,213.193359 226.936646,213.134277 
	C231.257278,203.276276 236.073975,193.544922 240.975586,183.480377 
	C243.960358,188.605850 246.907364,194.040146 249.744843,199.531036 
	C251.933151,203.765732 253.983948,208.071472 256.215210,212.701889 
z"/>
<path fill="#D69960" opacity="1.000000" stroke="none" 
	d="
M359.132935,209.113403 
	C359.820404,209.877701 360.457916,211.043274 361.112854,212.548935 
	C360.447845,211.764236 359.765442,210.639450 359.132935,209.113403 
z"/>
<path fill="#CBCBCB" opacity="1.000000" stroke="none" 
	d="
M287.432190,287.435211 
	C281.665924,287.882538 284.560150,283.856964 283.467590,280.892731 
	C285.338531,281.034241 287.790863,280.981934 287.829102,281.260803 
	C288.100067,283.235931 287.876221,285.278900 287.432190,287.435211 
z"/>
<path fill="#E8E8E8" opacity="1.000000" stroke="none" 
	d="
M263.004364,278.595276 
	C265.513245,278.595032 267.558258,278.595032 270.135162,278.595032 
	C267.771942,282.501587 259.516785,282.853638 255.387268,279.219055 
	C258.322906,278.963165 260.431732,278.779327 263.004364,278.595276 
z"/>
<path fill="#E8E8E8" opacity="1.000000" stroke="none" 
	d="
M218.273087,290.525879 
	C217.474548,289.781128 216.568649,288.917725 216.721786,288.330444 
	C217.248413,286.311005 218.145523,284.388123 219.260483,281.497711 
	C220.417297,284.788116 221.274841,287.227295 222.266449,290.047791 
	C220.815002,290.242920 219.733093,290.388367 218.273087,290.525879 
z"/>
</svg>